<svg width="3000" height="3000" viewBox="0 0 3000 3000" fill="none" xmlns="http://www.w3.org/2000/svg">
<g clip-path="url(#clip0_1_2)">
<path fill-rule="evenodd" clip-rule="evenodd" d="M1365.34 739.28C1992.85 -158.711 2660.31 161.248 2660.31 860.08C2660.31 1558.93 2129.93 2126.29 1476.6 2126.29C823.283 2126.29 224.365 1934.62 224.365 1235.77C224.365 536.939 974.165 1298.99 1365.34 739.28Z" fill="#F1EFEF"/>
<path d="M986.657 835.15C1083.55 835.15 1162.09 776.335 1162.09 703.784C1162.09 631.232 1083.55 572.418 986.657 572.418C889.767 572.418 811.223 631.232 811.223 703.784C811.223 776.335 889.767 835.15 986.657 835.15Z" fill="#F1EFEF"/>
<path fill-rule="evenodd" clip-rule="evenodd" d="M1803.82 2781.75C1853.58 2748.11 1923.6 2721.34 2021.83 2712.12C2332.76 2682.95 2292.98 2573.06 2379.15 2493.51C2379.15 2493.51 2508.26 2396.55 2744.58 2379.17C2961.22 2363.23 3000.07 2315.24 3000.07 2315.24C3000.07 2315.24 2899.54 2568.81 2682.75 2595.71C2465.89 2622.62 2378.86 2658.31 2234.31 2755.85L2196.11 2781.75H1803.82Z" fill="#D7E7FF"/>
<path fill-rule="evenodd" clip-rule="evenodd" d="M1829.81 2781.74C2006.93 2689.72 1952.46 2606.84 1998.49 2521.04C1998.49 2521.04 2072.37 2352.37 2303.75 2317.6C2535.14 2282.84 2594.2 2065.15 2594.2 2065.15C2594.2 2065.15 2752.11 2450.06 2555.9 2531.83C2359.62 2613.61 2292.36 2614.26 2190.86 2744.49L2162 2781.75L1829.81 2781.74Z" fill="#C9DDFE"/>
<path fill-rule="evenodd" clip-rule="evenodd" d="M1536.71 2781.77C1549.67 2772.96 1563.84 2764.41 1579.29 2756C1841.59 2613.16 1747.2 2529.87 1781.64 2426.41C1781.64 2426.41 1824.5 2250.36 2047.05 2186.96C2269.61 2123.54 2289.06 1900.9 2289.06 1900.9C2289.06 1900.9 2514.04 2261.65 2334.68 2367.12C2155.24 2472.61 2088.86 2481.69 2011.81 2623.19C1969.34 2701.31 1945.96 2748.78 1919.53 2781.79L1536.71 2781.77Z" fill="#D7E7FF"/>
<path fill-rule="evenodd" clip-rule="evenodd" d="M1196.31 2781.75C1146.55 2748.11 1076.53 2721.34 978.299 2712.12C667.369 2682.95 707.152 2573.06 620.982 2493.51C620.982 2493.51 491.87 2396.55 255.549 2379.17C38.9034 2363.23 0.0545913 2315.24 0.0545913 2315.24C0.0545913 2315.24 100.587 2568.81 317.376 2595.71C534.237 2622.62 621.268 2658.31 765.818 2755.85L804.021 2781.75H1196.31Z" fill="#D7E7FF"/>
<path fill-rule="evenodd" clip-rule="evenodd" d="M1170.32 2781.74C993.196 2689.72 1047.67 2606.84 1001.64 2521.04C1001.64 2521.04 927.763 2352.37 696.375 2317.6C464.99 2282.84 405.928 2065.15 405.928 2065.15C405.928 2065.15 248.02 2450.06 444.231 2531.83C640.512 2613.61 707.77 2614.26 809.264 2744.49L838.133 2781.75L1170.32 2781.74Z" fill="#C9DDFE"/>
<path fill-rule="evenodd" clip-rule="evenodd" d="M1463.45 2781.78C1450.49 2772.97 1436.33 2764.42 1420.88 2756.01C1158.58 2613.16 1252.96 2529.88 1218.53 2426.42C1218.53 2426.42 1175.67 2250.37 953.11 2186.96C730.556 2123.55 711.104 1900.91 711.104 1900.91C711.104 1900.91 486.12 2261.66 665.488 2367.13C844.923 2472.62 911.306 2481.7 988.357 2623.2C1030.82 2701.32 1054.21 2748.79 1080.63 2781.8L1463.45 2781.78Z" fill="#D7E7FF"/>
<path fill-rule="evenodd" clip-rule="evenodd" d="M2162.75 441.665C2162.75 413.26 2151.46 386.015 2131.39 365.934C2111.31 345.854 2084.1 334.566 2055.63 334.566H983.77C955.367 334.566 928.124 345.854 908.041 365.934C887.958 386.015 876.673 413.26 876.673 441.665V2674.16C876.673 2702.57 887.958 2729.81 908.041 2749.89C928.124 2769.97 955.367 2781.26 983.77 2781.26H2055.63C2084.1 2781.26 2111.31 2769.97 2131.39 2749.89C2151.46 2729.81 2162.75 2702.57 2162.75 2674.16V441.665Z" fill="#9DA8E2"/>
<path fill-rule="evenodd" clip-rule="evenodd" d="M951.141 467.883H2088.22V2593.06H951.141V467.883Z" fill="#E2E1FF"/>
<path fill-rule="evenodd" clip-rule="evenodd" d="M2033.35 916.475C2033.35 913.972 2032.33 911.562 2030.55 909.79C2028.83 908.018 2026.42 907.024 2023.93 907.024H1062.52C1060.03 907.024 1057.62 908.018 1055.9 909.79C1054.04 911.735 1053.06 914.079 1053.1 916.475V2301.28C1053.1 2303.78 1054.11 2306.19 1055.9 2307.96C1057.62 2309.74 1060.03 2310.73 1062.52 2310.73H2023.93C2026.42 2310.73 2028.83 2309.74 2030.55 2307.96C2032.33 2306.19 2033.35 2303.78 2033.35 2301.28V916.475Z" fill="#D0CEFF"/>
<path fill-rule="evenodd" clip-rule="evenodd" d="M2009.82 892.949C2009.82 890.446 2008.81 888.036 2007.02 886.264C2005.31 884.492 2002.9 883.498 2000.41 883.498H1038.99C1036.5 883.498 1034.09 884.492 1032.38 886.264C1030.51 888.209 1029.53 890.553 1029.58 892.949V2277.75C1029.58 2280.26 1030.59 2282.67 1032.38 2284.44C1034.09 2286.21 1036.5 2287.2 1038.99 2287.2H2000.41C2002.9 2287.2 2005.31 2286.21 2007.02 2284.44C2008.81 2282.67 2009.82 2280.26 2009.82 2277.75V892.949Z" fill="#F0F3FC"/>
<path d="M1519.71 2749.88C1554.36 2749.88 1582.45 2721.8 1582.45 2687.15C1582.45 2652.5 1554.36 2624.41 1519.71 2624.41C1485.06 2624.41 1456.98 2652.5 1456.98 2687.15C1456.98 2721.8 1485.06 2749.88 1519.71 2749.88Z" fill="#F0F3FC"/>
<path fill-rule="evenodd" clip-rule="evenodd" d="M1880.45 601.189H2005.92V616.873H1880.45V601.189Z" fill="white"/>
<path fill-rule="evenodd" clip-rule="evenodd" d="M1880.45 632.557H2005.92V648.241H1880.45V632.557Z" fill="white"/>
<path fill-rule="evenodd" clip-rule="evenodd" d="M1880.45 663.925H2005.92V679.609H1880.45V663.925Z" fill="white"/>
<path fill-rule="evenodd" clip-rule="evenodd" d="M1025.63 601.189H1276.57V632.557H1025.63V601.189Z" fill="white"/>
<path fill-rule="evenodd" clip-rule="evenodd" d="M1025.66 663.925H1182.5V695.293H1025.66V663.925Z" fill="white"/>
<path fill-rule="evenodd" clip-rule="evenodd" d="M1398.16 389.456H1578.53V412.982H1398.16V389.456Z" fill="#F0F3FC"/>
<path fill-rule="evenodd" clip-rule="evenodd" d="M1609.9 389.456H1641.27V412.982H1609.9V389.456Z" fill="#F0F3FC"/>
<path fill-rule="evenodd" clip-rule="evenodd" d="M1190.35 1071.71H1849.08V1134.44H1190.35V1071.71Z" fill="#CFCEFA"/>
<path fill-rule="evenodd" clip-rule="evenodd" d="M1151.13 1510.85H1402.07V1539.98H1151.13V1510.85Z" fill="#CFCEFA"/>
<path fill-rule="evenodd" clip-rule="evenodd" d="M1151.14 1777.48H1535.4V1806.6H1151.14V1777.48Z" fill="#CFCEFA"/>
<path fill-rule="evenodd" clip-rule="evenodd" d="M1190.35 1291.28H1849.08V1354.02H1190.35V1291.28Z" fill="#CFCEFA"/>
<path fill-rule="evenodd" clip-rule="evenodd" d="M1896.14 1583.37C1896.14 1582.88 1895.97 1582.39 1895.53 1582C1895.1 1581.6 1894.66 1581.41 1894.21 1581.43H1160.93C1160.4 1581.43 1159.97 1581.64 1159.61 1582C1159.18 1582.39 1159 1582.88 1159 1583.37V1720.65C1159 1721.14 1159.18 1721.64 1159.61 1722.02C1159.97 1722.38 1160.4 1722.59 1160.93 1722.59H1894.21C1894.74 1722.59 1895.18 1722.38 1895.53 1722.02C1895.97 1721.64 1896.14 1721.14 1896.14 1720.65V1583.37Z" fill="#D0CEFF"/>
<path fill-rule="evenodd" clip-rule="evenodd" d="M1896.14 1850C1896.14 1849.51 1895.97 1849.01 1895.53 1848.62C1895.1 1848.22 1894.66 1848.03 1894.21 1848.06H1160.93C1160.4 1848.06 1159.97 1848.27 1159.61 1848.62C1159.18 1849.01 1159 1849.51 1159 1850V1987.27C1159 1987.77 1159.18 1988.26 1159.61 1988.65C1159.97 1989 1160.4 1989.21 1160.93 1989.21H1894.21C1894.74 1989.21 1895.18 1989 1895.53 1988.65C1895.97 1988.26 1896.14 1987.77 1896.14 1987.27V1850Z" fill="#D0CEFF"/>
<path fill-rule="evenodd" clip-rule="evenodd" d="M1903.99 2085.26C1903.99 2084.76 1903.81 2084.27 1903.37 2083.88C1902.94 2083.48 1902.5 2083.29 1902.06 2083.32H1168.77C1168.25 2083.32 1167.81 2083.53 1167.46 2083.88C1167.02 2084.27 1166.84 2084.76 1166.84 2085.26V2222.53C1166.84 2223.03 1167.02 2223.52 1167.46 2223.91C1167.81 2224.26 1168.25 2224.47 1168.77 2224.47H1902.06C1902.58 2224.47 1903.02 2224.26 1903.37 2223.91C1903.81 2223.52 1903.99 2223.03 1903.99 2222.53V2085.26Z" fill="#D0CEFF"/>
<path fill-rule="evenodd" clip-rule="evenodd" d="M1888.3 1575.53C1888.3 1575.04 1888.13 1574.54 1887.69 1574.15C1887.26 1573.75 1886.82 1573.56 1886.37 1573.59H1153.09C1152.56 1573.59 1152.12 1573.8 1151.77 1574.15C1151.33 1574.54 1151.16 1575.04 1151.16 1575.53V1712.81C1151.16 1713.3 1151.33 1713.79 1151.77 1714.18C1152.12 1714.53 1152.56 1714.75 1153.09 1714.75H1886.37C1886.9 1714.75 1887.34 1714.53 1887.69 1714.18C1888.13 1713.79 1888.3 1713.3 1888.3 1712.81V1575.53Z" fill="white"/>
<path fill-rule="evenodd" clip-rule="evenodd" d="M1888.3 1842.16C1888.3 1841.66 1888.13 1841.17 1887.69 1840.78C1887.26 1840.38 1886.82 1840.19 1886.37 1840.22H1153.09C1152.56 1840.22 1152.12 1840.43 1151.77 1840.78C1151.33 1841.17 1151.16 1841.66 1151.16 1842.16V1979.43C1151.16 1979.93 1151.33 1980.42 1151.77 1980.81C1152.12 1981.16 1152.56 1981.37 1153.09 1981.37H1886.37C1886.9 1981.37 1887.34 1981.16 1887.69 1980.81C1888.13 1980.42 1888.3 1979.93 1888.3 1979.43V1842.16Z" fill="white"/>
<path fill-rule="evenodd" clip-rule="evenodd" d="M1888.3 2069.57C1888.3 2069.08 1888.13 2068.59 1887.69 2068.2C1887.26 2067.8 1886.82 2067.61 1886.37 2067.63H1153.09C1152.56 2067.63 1152.12 2067.85 1151.77 2068.2C1151.33 2068.59 1151.16 2069.08 1151.16 2069.57V2206.85C1151.16 2207.34 1151.33 2207.84 1151.77 2208.22C1152.12 2208.58 1152.56 2208.79 1153.09 2208.79H1886.37C1886.9 2208.79 1887.34 2208.58 1887.69 2208.22C1888.13 2207.84 1888.3 2207.34 1888.3 2206.85V2069.57Z" fill="#4D5BC8"/>
<path fill-rule="evenodd" clip-rule="evenodd" d="M1127.65 1181.49H1911.84V1244.23H1127.65V1181.49Z" fill="#CFCEFA"/>
<path d="M273.443 2269.84C318.958 2153.2 468.681 2212.82 423.577 2328.42L229.832 2695.63L118.205 2695.63L273.443 2269.84Z" fill="#41465A"/>
<path fill-rule="evenodd" clip-rule="evenodd" d="M405.433 2361.1C358.534 2412.98 272.718 2392.72 273.553 2286.92L276.632 1742.67L503.918 1744.46L436.593 2273.39L427.625 2272.48C401.571 2272.49 380.423 2293.64 380.42 2319.69C380.397 2328.22 382.717 2336.59 387.128 2343.9C391.539 2351.2 397.871 2357.15 405.433 2361.1Z" fill="#41465A"/>
<path d="M118.224 2695.47C118.224 2732.45 105.014 2780.85 133.101 2780.85H290.632C302.121 2780.5 330.376 2778.51 304.645 2757.26L229.852 2695.47H118.224Z" fill="#DADDDF"/>
<path d="M754.047 2299.83C765.472 2175.14 604.883 2161.55 593.561 2285.13L604.791 2695.51L714.683 2711.54L754.047 2299.83Z" fill="#41465A"/>
<path fill-rule="evenodd" clip-rule="evenodd" d="M748.831 2245.85C724.594 2247.61 705.534 2267.93 705.534 2292.66C705.532 2316.06 722.591 2335.5 744.968 2339.08C714.584 2401.91 619.134 2389.42 593.572 2292.95L431.946 1769.2L655.541 1728.37L748.831 2245.85Z" fill="#41465A"/>
<path d="M604.74 2695.47C604.74 2732.45 591.53 2780.85 619.617 2780.85H777.148C788.637 2780.5 816.892 2778.51 791.161 2757.26L716.368 2695.47H604.74Z" fill="#DADDDF"/>
<path d="M564.615 1466.8L694.546 1676.39C731.076 1745.04 813.306 1684.93 783.742 1629.37L668.189 1412.2C628.511 1337.62 525.941 1394.12 564.615 1466.8Z" fill="#424EAD"/>
<path d="M889.531 1429.5L947.021 1395.39C957.252 1389.31 967.532 1384.8 941.952 1424.33C952.2 1432.31 976.247 1418.21 994.075 1414.37C1034.66 1407.64 1010.07 1480.24 917.643 1509.28C871.527 1525.31 846.116 1444.59 889.531 1429.5Z" fill="#FFB89C"/>
<path d="M939.148 1494.75L783.002 1685.73C774.619 1694.75 765.56 1700.44 756.554 1703.51C710.471 1719.07 665.212 1664.06 709.013 1617.2L725.697 1599.33L877.082 1437.27C886.817 1469.73 909.799 1486.06 939.148 1494.75Z" fill="#FFB89C"/>
<path d="M275.527 1818.69C278.289 1819.68 541.614 1948.17 672.407 1818.69L658.196 1397.8C581.208 1291.17 374.535 1293.46 289.158 1397.8L275.527 1818.69Z" fill="#5C68C2"/>
<path fill-rule="evenodd" clip-rule="evenodd" d="M282.086 1616.18C344.659 1595.5 415.881 1613.85 486.453 1642.49C559.19 1672.02 624.864 1684.4 668.032 1689.13L672.407 1818.69C541.614 1948.17 278.289 1819.68 275.527 1818.69L282.086 1616.18ZM284.761 1533.57L289.158 1397.8C374.535 1293.46 581.208 1291.17 658.196 1397.8L661.992 1510.24C625.797 1530.69 571.56 1546.01 496.62 1530.65C405.233 1511.93 330.976 1521.74 284.761 1533.57Z" fill="#5C68C2"/>
<path d="M405.05 1328.21C413.949 1325.45 424.467 1323.24 427.971 1317.11L441.471 1177.72L528.999 1170.93L529.228 1316.72C534.448 1321.18 547.035 1326.85 553.882 1329.23C523.402 1368.99 450.789 1363.33 405.046 1328.21H405.05Z" fill="#FFB89C"/>
<path d="M528.991 1293.41V1309.75C499.666 1314.66 481.363 1306.82 465.519 1288.09L528.991 1293.41Z" fill="#FF956B"/>
<path d="M488.525 1117.98H528.073C558.475 1117.98 582.944 1142.45 582.944 1172.85V1238.58C582.944 1268.98 558.475 1293.45 528.073 1293.45H488.525C481.315 1293.47 474.172 1292.06 467.507 1289.31C460.843 1286.56 454.787 1282.52 449.689 1277.42C444.59 1272.32 440.549 1266.26 437.797 1259.6C435.045 1252.93 433.637 1245.79 433.653 1238.58V1172.85C433.638 1165.64 435.046 1158.5 437.798 1151.83C440.55 1145.17 444.592 1139.11 449.69 1134.02C454.788 1128.92 460.844 1124.88 467.508 1122.12C474.172 1119.37 481.315 1117.96 488.525 1117.98Z" fill="#FFB89C"/>
<path d="M439.72 1111.04C475.815 1081.66 572.609 1043.36 591.826 1074.59C601.383 1090.18 607.891 1111.87 581.964 1167.05C523.399 1197.35 499.505 1185.06 468.392 1190.21C476.526 1236.97 444.906 1241.82 433.111 1262.17C438.093 1243.91 379.529 1151.11 415.522 1124.9C410.743 1120.34 408.302 1116.07 409.726 1113.52C411.251 1110.69 417.149 1110.71 424.673 1113.03C425.588 1105.21 427.926 1099.8 431.078 1099.51C434.23 1099.22 437.484 1103.83 439.72 1111.04Z" fill="#3D174D"/>
<path d="M451.901 1208.9C463.281 1214.51 468.581 1227.02 463.742 1236.83C458.904 1246.64 445.752 1250.04 434.373 1244.43C422.989 1238.81 417.691 1226.31 422.531 1216.5C427.37 1206.69 440.521 1203.29 451.901 1208.9Z" fill="#FFB89C"/>
<path d="M430.265 1225.37C430.265 1225.37 441.283 1205.77 457.344 1226.68C457.344 1226.68 440.349 1219.77 430.265 1225.37Z" fill="#FF956B"/>
<path fill-rule="evenodd" clip-rule="evenodd" d="M584.81 1836.67C585.76 1835.38 586.159 1833.77 585.92 1832.18C585.68 1830.6 584.822 1829.18 583.53 1828.22L534.874 1792.36C533.584 1791.41 531.97 1791.01 530.387 1791.25C528.803 1791.49 527.379 1792.35 526.429 1793.64L451.739 1894.99C450.789 1896.28 450.39 1897.89 450.629 1899.47C450.869 1901.06 451.728 1902.48 453.018 1903.43L501.674 1939.29C502.966 1940.24 504.579 1940.64 506.162 1940.4C507.745 1940.16 509.17 1939.3 510.12 1938.01L584.81 1836.67Z" fill="#CFCEFA"/>
<path fill-rule="evenodd" clip-rule="evenodd" d="M533.864 1841.45L533.24 1842.22C527.515 1849.99 529.173 1860.94 536.941 1866.66C537.86 1867.34 538.832 1867.92 539.836 1868.39C533.988 1875.49 523.515 1876.85 516.016 1871.32C508.248 1865.6 506.59 1854.64 512.314 1846.88C517.358 1840.03 526.461 1837.93 533.864 1841.45Z" fill="#E2E1FF"/>
<path d="M567.522 1830.13C569.116 1831.3 571.362 1830.96 572.537 1829.37C573.712 1827.77 573.372 1825.53 571.778 1824.35C570.183 1823.18 567.938 1823.52 566.762 1825.11C565.587 1826.71 565.927 1828.95 567.522 1830.13Z" fill="#4E5BBE"/>
<path d="M574.594 1835.34C576.188 1836.51 578.434 1836.17 579.609 1834.58C580.784 1832.98 580.444 1830.74 578.85 1829.56C577.255 1828.39 575.01 1828.73 573.834 1830.32C572.659 1831.92 572.999 1834.16 574.594 1835.34Z" fill="#4E5BBE"/>
<path d="M569.5 1842.25C571.094 1843.43 573.34 1843.09 574.515 1841.49C575.69 1839.9 575.35 1837.65 573.755 1836.48C572.161 1835.3 569.915 1835.64 568.74 1837.24C567.565 1838.83 567.905 1841.08 569.5 1842.25Z" fill="#4E5BBE"/>
<path d="M562.587 1837.16C564.182 1838.33 566.427 1837.99 567.602 1836.4C568.778 1834.8 568.438 1832.56 566.843 1831.38C565.248 1830.21 563.003 1830.55 561.828 1832.14C560.652 1833.74 560.992 1835.98 562.587 1837.16Z" fill="#4E5BBE"/>
<path d="M519.527 1638.52C563.55 1638.52 599.238 1605.8 599.238 1565.45C599.238 1525.09 563.55 1492.38 519.527 1492.38C475.503 1492.38 439.816 1525.09 439.816 1565.45C439.816 1605.8 475.503 1638.52 519.527 1638.52Z" fill="#9DA8E2"/>
<path fill-rule="evenodd" clip-rule="evenodd" d="M514.96 1873.53C514.96 1873.54 514.96 1873.55 515.062 1873.56L514.96 1873.53ZM515.062 1872.12C515.062 1872.17 514.96 1872.21 514.96 1872.26L515.062 1872.12ZM516.18 1861.22L516.891 1862.86L523.5 1870.8C529.804 1877.39 538.446 1884 544.75 1891.39C555.528 1922.25 493.913 1939.44 428.333 1871.85C392.543 1838.63 452.023 1778.35 485.678 1809.63L506.215 1822.17C511.502 1831.68 514.452 1842.14 514.858 1853.51H514.757C514.35 1856.16 514.858 1858.74 516.18 1861.22Z" fill="#FFB89C"/>
<path d="M485.678 1809.61C453.235 1819.46 436.985 1842.5 428.426 1871.84L236.965 1716.29C231.7 1711.41 227.509 1706.24 224.386 1701C224.059 1700.43 223.706 1699.95 223.374 1699.38C223.014 1698.76 222.735 1698.16 222.371 1697.54C197.278 1649.15 255.678 1596.02 305.288 1642.08L317.224 1653.18L485.678 1809.61Z" fill="#FFB89C"/>
<path d="M391.832 1450.38L319.784 1672.65L315.802 1684.96C300.248 1746.52 234.584 1732.04 219.461 1691.39C215.986 1682.27 215.138 1671.84 217.974 1660.61L278.209 1422.11C298.9 1340.21 412.056 1370.56 391.832 1450.38Z" fill="#FFB89C"/>
<path d="M391.832 1450.38L319.784 1672.65L219.461 1691.39C215.986 1682.27 215.138 1671.84 217.974 1660.62L278.209 1422.11C298.9 1340.21 412.056 1370.56 391.832 1450.38Z" fill="#4D5BC8"/>
<path d="M391.832 1450.39L331.388 1666.41C303.415 1689.02 260.221 1700.58 219.461 1691.4" fill="#4D5BC8"/>
<path fill-rule="evenodd" clip-rule="evenodd" d="M409.523 1325.96C409.625 1326.16 411.353 1327.91 412.878 1329.09C416.945 1332.15 423.35 1335.87 431.28 1339.45C462.088 1353.42 516.587 1365.61 550.444 1325.56C552.275 1323.43 555.528 1323.15 557.663 1324.97C559.798 1326.78 560.002 1329.98 558.274 1332.13C520.959 1376.25 461.072 1364.1 427.011 1348.71C416.742 1344.05 408.81 1339.1 404.54 1335.44C401.998 1333.17 400.473 1331.05 399.965 1329.61C399.532 1328.33 399.62 1326.93 400.21 1325.71C400.799 1324.5 401.844 1323.56 403.118 1323.11C404.347 1322.67 405.697 1322.72 406.889 1323.25C408.082 1323.78 409.025 1324.75 409.523 1325.96Z" fill="white"/>
<path fill-rule="evenodd" clip-rule="evenodd" d="M436.553 2273.39L434.723 2288.2C431.977 2319.84 420.793 2344.32 405.44 2361.1C397.875 2357.15 391.541 2351.2 387.129 2343.9C382.718 2336.59 380.401 2328.22 380.428 2319.69C380.434 2307.17 385.405 2295.17 394.251 2286.32C403.097 2277.48 415.093 2272.5 427.606 2272.49L436.553 2273.39Z" fill="#41465A"/>
<path fill-rule="evenodd" clip-rule="evenodd" d="M748.774 2245.87L752.129 2264.02C757.823 2295.55 759.145 2321.77 749.689 2340.14C727.32 2336.56 705.562 2316.07 705.562 2292.68C705.562 2267.95 724.575 2247.64 748.774 2245.87Z" fill="#41465A"/>
<path fill-rule="evenodd" clip-rule="evenodd" d="M2740.36 1485.69C2740.36 1471.3 2728.61 1459.64 2714.23 1459.64H2263.04C2248.65 1459.64 2237.08 1471.3 2237.08 1485.69V1936.86C2237.08 1951.24 2248.65 1962.91 2263.04 1962.91H2714.23C2728.61 1962.91 2740.36 1951.24 2740.36 1936.86V1485.69Z" fill="#4D5BC8"/>
<path fill-rule="evenodd" clip-rule="evenodd" d="M2411.87 1702.74V1660.98C2411.86 1650.01 2414.02 1639.14 2418.21 1629C2422.41 1618.85 2428.56 1609.64 2436.32 1601.87C2444.07 1594.11 2453.29 1587.95 2463.43 1583.75C2473.56 1579.55 2484.43 1577.39 2495.41 1577.39C2541.73 1577.39 2579.09 1614.81 2579.09 1660.98V1702.74H2563.91V1660.98C2563.9 1651.99 2562.12 1643.09 2558.68 1634.79C2555.23 1626.49 2550.19 1618.94 2543.82 1612.59C2537.46 1606.24 2529.91 1601.2 2521.61 1597.77C2513.3 1594.33 2504.4 1592.57 2495.41 1592.57C2457.59 1592.57 2427.06 1623.19 2427.06 1660.98V1702.74H2411.87Z" fill="#4E5BBE"/>
<path fill-rule="evenodd" clip-rule="evenodd" d="M2609.04 1718.37C2609.04 1713.74 2607.2 1709.28 2603.9 1706C2600.6 1702.72 2596.12 1700.88 2591.5 1700.88H2399.37C2394.76 1700.88 2390.27 1702.72 2387.11 1706C2383.81 1709.28 2381.97 1713.74 2381.97 1718.37V1858.46C2381.97 1863.11 2383.81 1867.55 2387.11 1870.84C2390.27 1874.12 2394.76 1875.97 2399.37 1875.97H2591.5C2596.12 1875.97 2600.6 1874.12 2603.9 1870.84C2607.2 1867.55 2609.04 1863.11 2609.04 1858.46V1718.37Z" fill="#4E5BBE"/>
<path fill-rule="evenodd" clip-rule="evenodd" d="M2488.55 1799.19C2482.63 1797.65 2477.39 1794.2 2473.65 1789.36C2469.91 1784.52 2467.89 1778.57 2467.91 1772.46C2467.9 1768.84 2468.61 1765.25 2469.99 1761.9C2471.37 1758.55 2473.4 1755.51 2475.96 1752.95C2478.52 1750.38 2481.56 1748.35 2484.91 1746.96C2488.25 1745.57 2491.84 1744.86 2495.46 1744.85C2502.79 1744.85 2509.81 1747.76 2515 1752.94C2520.18 1758.11 2523.1 1765.13 2523.12 1772.46C2523.12 1785.32 2514.27 1796.14 2502.37 1799.19V1824.56H2488.55V1799.19Z" fill="#4E5BBE"/>
<path fill-rule="evenodd" clip-rule="evenodd" d="M2398.14 1687.34V1645.59C2398.13 1634.61 2400.29 1623.74 2404.48 1613.6C2408.68 1603.46 2414.83 1594.24 2422.58 1586.48C2430.34 1578.72 2439.55 1572.56 2449.69 1568.35C2459.83 1564.15 2470.7 1561.99 2481.67 1561.99C2528 1561.99 2565.36 1599.41 2565.36 1645.59V1687.34H2550.17V1645.59C2550.17 1636.6 2548.39 1627.7 2544.95 1619.39C2541.5 1611.09 2536.45 1603.55 2530.09 1597.2C2523.73 1590.84 2516.18 1585.81 2507.87 1582.37C2499.57 1578.94 2490.66 1577.17 2481.67 1577.18C2443.86 1577.18 2413.33 1607.8 2413.33 1645.59V1687.34H2398.14Z" fill="white"/>
<path fill-rule="evenodd" clip-rule="evenodd" d="M2595.31 1702.98C2595.31 1698.34 2593.47 1693.89 2590.17 1690.6C2586.87 1687.32 2582.39 1685.48 2577.77 1685.48H2385.64C2381.03 1685.48 2376.54 1687.32 2373.38 1690.6C2370.08 1693.89 2368.23 1698.34 2368.23 1702.98V1843.07C2368.23 1847.71 2370.08 1852.16 2373.38 1855.44C2376.54 1858.72 2381.03 1860.57 2385.64 1860.57H2577.77C2582.39 1860.57 2586.87 1858.72 2590.17 1855.44C2593.47 1852.16 2595.31 1847.71 2595.31 1843.07V1702.98Z" fill="white"/>
<path fill-rule="evenodd" clip-rule="evenodd" d="M2474.81 1783.79C2468.9 1782.26 2463.66 1778.8 2459.92 1773.96C2456.18 1769.12 2454.16 1763.18 2454.17 1757.06C2454.17 1753.44 2454.88 1749.85 2456.26 1746.5C2457.64 1743.16 2459.67 1740.11 2462.23 1737.55C2464.79 1734.99 2467.83 1732.95 2471.17 1731.56C2474.52 1730.17 2478.11 1729.46 2481.73 1729.46C2489.05 1729.46 2496.08 1732.36 2501.26 1737.54C2506.45 1742.72 2509.37 1749.74 2509.38 1757.06C2509.38 1769.92 2500.54 1780.74 2488.64 1783.79V1809.16H2474.81V1783.79Z" fill="#5C68C2"/>
<path fill-rule="evenodd" clip-rule="evenodd" d="M2615.06 1507.02H2701.67V1520.4H2615.06V1507.02Z" fill="white"/>
<path fill-rule="evenodd" clip-rule="evenodd" d="M1010.63 226.318C1010.63 211.934 998.88 200.268 984.496 200.268H533.308C518.924 200.268 507.346 211.934 507.346 226.318V677.489C507.346 691.873 518.924 703.539 533.308 703.539H984.496C998.88 703.539 1010.63 691.873 1010.63 677.489V226.318Z" fill="#4D5BC8"/>
<path d="M771.329 577.159C751.46 577.159 733.771 574.449 718.262 569.031C702.754 563.674 689.643 555.795 678.93 545.394C668.217 535.054 660.058 522.411 654.452 507.462C648.846 492.514 646.044 475.511 646.044 456.452C646.044 437.642 648.846 420.576 654.452 405.254C660.12 389.932 668.373 376.79 679.21 365.828C690.048 354.803 703.283 346.333 718.916 340.416C734.612 334.499 752.488 331.54 772.543 331.54C791.104 331.54 807.672 334.25 822.246 339.668C836.883 345.087 849.278 352.81 859.43 362.838C869.645 372.804 877.399 384.669 882.693 398.434C888.05 412.136 890.697 427.302 890.634 443.932C890.697 455.393 889.7 465.919 887.645 475.511C885.589 485.102 882.351 493.48 877.928 500.642C873.568 507.743 867.838 513.379 860.738 517.553C853.637 521.663 845.042 523.999 834.952 524.56C827.727 525.12 821.872 524.591 817.388 522.971C812.903 521.352 809.478 518.954 807.111 515.777C804.806 512.539 803.312 508.77 802.627 504.473H801.505C800.011 508.21 797.083 511.604 792.723 514.656C788.363 517.646 783.038 519.982 776.747 521.663C770.519 523.283 763.886 523.874 756.848 523.438C749.498 523.002 742.522 521.29 735.92 518.3C729.38 515.31 723.557 510.982 718.449 505.314C713.404 499.646 709.418 492.639 706.491 484.293C703.626 475.947 702.162 466.292 702.1 455.33C702.162 444.493 703.688 435.057 706.677 427.022C709.729 418.988 713.747 412.23 718.73 406.749C723.775 401.268 729.38 396.97 735.546 393.856C741.712 390.742 747.91 388.748 754.138 387.876C761.176 386.818 767.841 386.818 774.131 387.876C780.422 388.935 785.716 390.648 790.014 393.015C794.374 395.382 797.083 397.935 798.142 400.676H799.45V390.212H828.693V481.396C828.755 485.694 829.72 489.026 831.589 491.393C833.457 493.76 835.98 494.943 839.156 494.943C843.454 494.943 847.035 493.044 849.9 489.244C852.828 485.445 855.008 479.621 856.44 471.774C857.935 463.926 858.682 453.929 858.682 441.784C858.682 430.074 857.125 419.797 854.011 410.953C850.959 402.046 846.662 394.479 841.118 388.25C835.637 381.959 829.253 376.852 821.966 372.928C814.679 369.004 806.768 366.139 798.235 364.333C789.765 362.527 781.045 361.624 772.076 361.624C756.567 361.624 743.02 363.99 731.436 368.724C719.851 373.395 710.197 379.966 702.473 388.437C694.75 396.908 688.958 406.842 685.096 418.24C681.297 429.576 679.366 441.939 679.303 455.33C679.366 470.092 681.421 483.172 685.47 494.57C689.58 505.905 695.622 515.435 703.594 523.158C711.567 530.881 721.408 536.736 733.117 540.722C744.827 544.708 758.28 546.702 773.477 546.702C780.64 546.702 787.647 546.172 794.498 545.113C801.35 544.117 807.547 542.871 813.09 541.376C818.634 539.944 823.087 538.542 826.45 537.172L835.7 564.266C831.776 566.508 826.45 568.595 819.724 570.525C813.059 572.518 805.523 574.107 797.114 575.29C788.768 576.536 780.173 577.159 771.329 577.159ZM767.031 492.701C774.63 492.701 780.671 491.237 785.156 488.31C789.703 485.383 792.941 481.054 794.872 475.324C796.865 469.531 797.799 462.4 797.675 453.929C797.613 446.455 796.647 440.133 794.779 434.963C792.972 429.732 789.827 425.777 785.343 423.098C780.92 420.358 774.754 418.988 766.844 418.988C759.931 418.988 754.045 420.451 749.187 423.379C744.391 426.306 740.716 430.417 738.162 435.711C735.671 440.943 734.394 447.109 734.332 454.209C734.394 460.811 735.453 467.071 737.508 472.988C739.564 478.843 742.958 483.608 747.692 487.282C752.425 490.895 758.872 492.701 767.031 492.701Z" fill="#4E5BBE"/>
<path d="M763.601 565.924C743.732 565.924 726.043 563.214 710.534 557.796C695.026 552.439 681.915 544.56 671.202 534.159C660.489 523.819 652.33 511.176 646.724 496.227C641.118 481.279 638.316 464.276 638.316 445.217C638.316 426.407 641.118 409.341 646.724 394.019C652.392 378.697 660.645 365.555 671.482 354.593C682.32 343.568 695.555 335.098 711.188 329.181C726.884 323.264 744.76 320.305 764.815 320.305C783.376 320.305 799.944 323.015 814.518 328.433C829.155 333.852 841.549 341.575 851.702 351.603C861.916 361.569 869.671 373.434 874.965 387.199C880.322 400.901 882.969 416.067 882.906 432.697C882.969 444.158 881.972 454.684 879.917 464.276C877.861 473.867 874.622 482.245 870.2 489.407C865.84 496.508 860.11 502.144 853.01 506.318C845.909 510.428 837.314 512.764 827.224 513.325C819.999 513.885 814.144 513.356 809.66 511.736C805.175 510.117 801.75 507.719 799.383 504.542C797.078 501.304 795.584 497.535 794.899 493.238H793.777C792.283 496.975 789.355 500.369 784.995 503.421C780.635 506.411 775.31 508.747 769.019 510.428C762.791 512.048 756.158 512.639 749.119 512.203C741.77 511.767 734.794 510.055 728.192 507.065C721.652 504.075 715.829 499.747 710.721 494.079C705.676 488.411 701.69 481.404 698.763 473.058C695.898 464.712 694.434 455.057 694.372 444.095C694.434 433.258 695.96 423.822 698.949 415.787C702.001 407.753 706.019 400.995 711.001 395.514C716.047 390.033 721.652 385.735 727.818 382.621C733.984 379.507 740.182 377.513 746.41 376.641C753.448 375.583 760.113 375.583 766.403 376.641C772.694 377.7 777.988 379.413 782.286 381.78C786.646 384.147 789.355 386.7 790.414 389.441H791.722V378.977H820.965V470.161C821.027 474.459 821.992 477.791 823.861 480.158C825.729 482.525 828.252 483.708 831.428 483.708C835.726 483.708 839.307 481.809 842.172 478.009C845.1 474.21 847.28 468.386 848.712 460.539C850.207 452.691 850.954 442.694 850.954 430.549C850.954 418.839 849.397 408.562 846.283 399.718C843.231 390.811 838.934 383.244 833.39 377.015C827.909 370.724 821.525 365.617 814.238 361.693C806.951 357.769 799.04 354.904 790.507 353.098C782.037 351.292 773.317 350.389 764.348 350.389C748.839 350.389 735.292 352.755 723.707 357.489C712.123 362.16 702.469 368.731 694.745 377.202C687.022 385.673 681.23 395.607 677.368 407.005C673.569 418.341 671.638 430.704 671.575 444.095C671.638 458.857 673.693 471.937 677.742 483.335C681.852 494.67 687.894 504.2 695.866 511.923C703.839 519.646 713.68 525.501 725.389 529.487C737.099 533.474 750.552 535.467 765.749 535.467C772.912 535.467 779.919 534.937 786.77 533.878C793.622 532.882 799.819 531.636 805.362 530.141C810.906 528.709 815.359 527.307 818.722 525.937L827.971 553.031C824.048 555.273 818.722 557.36 811.996 559.29C805.331 561.283 797.795 562.872 789.386 564.055C781.04 565.301 772.445 565.924 763.601 565.924ZM759.303 481.466C766.902 481.466 772.943 480.002 777.428 477.075C781.974 474.148 785.213 469.819 787.144 464.089C789.137 458.296 790.071 451.165 789.947 442.694C789.885 435.22 788.919 428.898 787.051 423.728C785.244 418.497 782.099 414.542 777.615 411.863C773.192 409.123 767.026 407.753 759.116 407.753C752.203 407.753 746.317 409.216 741.459 412.144C736.663 415.071 732.988 419.182 730.434 424.476C727.943 429.708 726.666 435.874 726.604 442.974C726.666 449.576 727.725 455.836 729.78 461.753C731.836 467.608 735.23 472.373 739.964 476.047C744.697 479.66 751.144 481.466 759.303 481.466Z" fill="white"/>
<path fill-rule="evenodd" clip-rule="evenodd" d="M880.561 247.651H967.178V261.031H880.561V247.651Z" fill="white"/>
<path fill-rule="evenodd" clip-rule="evenodd" d="M2084.55 1919.73H1890.35C1887.6 1919.73 1885.27 1917.45 1885.27 1914.65C1885.27 1911.84 1887.6 1909.56 1890.35 1909.56H2089.63C2092.48 1909.56 2094.72 1911.84 2094.72 1914.65V2178.25H2478.74V1964.24C2478.74 1961.44 2481.08 1959.16 2483.83 1959.16C2486.67 1959.16 2488.91 1961.44 2488.91 1964.24V2183.33C2488.91 2186.14 2486.67 2188.42 2483.83 2188.42H2089.63C2086.89 2188.42 2084.55 2186.14 2084.55 2183.33V1919.73ZM2192.53 839.28H2167.21C2164.46 839.28 2162.13 837.003 2162.13 834.197C2162.13 831.401 2164.46 829.113 2167.21 829.113H2197.61C2200.46 829.113 2202.69 831.39 2202.69 834.197V1652.79C2202.69 1655.6 2200.46 1657.88 2197.61 1657.88H1890.45C1887.6 1657.88 1885.37 1655.59 1885.37 1652.79C1885.37 1649.99 1887.6 1647.71 1890.45 1647.71H2192.53V839.28ZM746.505 829.459H873.09C875.937 829.459 878.174 831.736 878.174 834.542C878.174 837.349 875.937 839.626 873.09 839.626H741.421C738.574 839.626 736.338 837.349 736.338 834.542V702.873C736.338 700.067 738.574 697.789 741.421 697.789C744.167 697.789 746.505 700.067 746.505 702.873V829.459Z" fill="#5C68C2"/>
<path fill-rule="evenodd" clip-rule="evenodd" d="M10.7487 2779.37H2970.41V2810.28H10.7487V2779.37Z" fill="#4D5BC8" fill-opacity="0.85"/>
</g>
<defs>
<clipPath id="clip0_1_2">
<rect width="3000" height="3000" fill="white"/>
</clipPath>
</defs>
</svg>
